<svg viewBox="0 0 200 200" xmlns="http://www.w3.org/2000/svg">
  <defs>
    <radialGradient id="globeOcean" cx="40%" cy="30%" r="65%">
      <stop offset="0%" stop-color="#87CEEB"/>
      <stop offset="30%" stop-color="#4A90D9"/>
      <stop offset="70%" stop-color="#2563EB"/>
      <stop offset="100%" stop-color="#1E3A5F"/>
    </radialGradient>
    <clipPath id="globeClip"><circle cx="100" cy="100" r="65"/></clipPath>
  </defs>
  <!-- Globe -->
  <circle cx="100" cy="100" r="65" fill="url(#globeOcean)"/>
  <circle cx="100" cy="100" r="67" fill="none" stroke="#87CEEB" stroke-width="1.5" opacity="0.3"/>
  <circle cx="100" cy="100" r="70" fill="none" stroke="#87CEEB" stroke-width="0.5" opacity="0.15"/>
  <circle cx="78" cy="72" r="20" fill="white" opacity="0.1"/>
  <!-- Continents -->
  <g clip-path="url(#globeClip)">
    <path d="M60 55 Q55 60 52 70 Q50 78 55 82 Q60 85 68 82 Q75 78 78 72 Q82 65 80 58 Q75 52 68 52 Z" fill="#3D8B37" opacity="0.7"/>
    <path d="M72 90 Q68 95 65 105 Q63 115 66 125 Q70 132 75 128 Q78 120 77 110 Q76 100 74 92 Z" fill="#2E7D32" opacity="0.65"/>
    <path d="M95 58 Q92 62 90 68 Q88 72 90 75 Q93 78 97 76 Q100 72 100 66 Q99 60 96 57 Z" fill="#4CAF50" opacity="0.6"/>
    <path d="M92 82 Q88 90 87 100 Q86 110 90 118 Q94 124 97 120 Q99 112 98 102 Q97 92 94 84 Z" fill="#388E3C" opacity="0.6"/>
    <path d="M105 50 Q110 48 118 50 Q128 54 135 62 Q140 70 138 78 Q134 82 128 80 Q120 76 115 70 Q108 62 106 54 Z" fill="#43A047" opacity="0.65"/>
    <path d="M130 105 Q135 102 140 105 Q144 110 142 116 Q138 120 132 118 Q128 114 130 108 Z" fill="#66BB6A" opacity="0.55"/>
  </g>
  <!-- Cloud wisps -->
  <ellipse cx="70" cy="65" rx="12" ry="3" fill="white" opacity="0.2" transform="rotate(-10 70 65)"/>
  <ellipse cx="120" cy="85" rx="15" ry="3" fill="white" opacity="0.15" transform="rotate(5 120 85)"/>
  <ellipse cx="85" cy="110" rx="10" ry="2.5" fill="white" opacity="0.18" transform="rotate(-8 85 110)"/>
  <!-- Orbit lines - Polarity colours -->
  <ellipse cx="100" cy="100" rx="90" ry="35" fill="none" stroke="#4ECDC4" stroke-width="2" transform="rotate(-25 100 100)" opacity="0.8"/>
  <ellipse cx="100" cy="100" rx="88" ry="28" fill="none" stroke="#FFA07A" stroke-width="1.8" transform="rotate(50 100 100)" opacity="0.7"/>
  <ellipse cx="100" cy="100" rx="92" ry="22" fill="none" stroke="#BB8FCE" stroke-width="1.5" transform="rotate(-65 100 100)" opacity="0.6"/>
  <ellipse cx="100" cy="100" rx="85" ry="40" fill="none" stroke="#4ECDC4" stroke-width="1.2" transform="rotate(20 100 100)" opacity="0.5"/>
  <ellipse cx="100" cy="100" rx="95" ry="18" fill="none" stroke="#FFA07A" stroke-width="1" transform="rotate(75 100 100)" opacity="0.5"/>
  <ellipse cx="100" cy="100" rx="82" ry="32" fill="none" stroke="#BB8FCE" stroke-width="1.5" transform="rotate(-45 100 100)" opacity="0.6"/>
  <ellipse cx="100" cy="100" rx="78" ry="45" fill="none" stroke="#4ECDC4" stroke-width="1" transform="rotate(5 100 100)" opacity="0.4"/>
  <ellipse cx="100" cy="100" rx="87" ry="25" fill="none" stroke="#FFA07A" stroke-width="1.3" transform="rotate(35 100 100)" opacity="0.55"/>
  <ellipse cx="100" cy="100" rx="80" ry="38" fill="none" stroke="#BB8FCE" stroke-width="1" transform="rotate(-10 100 100)" opacity="0.45"/>
  <ellipse cx="100" cy="100" rx="91" ry="20" fill="none" stroke="#4ECDC4" stroke-width="1" transform="rotate(60 100 100)" opacity="0.4"/>
  <ellipse cx="100" cy="100" rx="84" ry="42" fill="none" stroke="#FFA07A" stroke-width="0.8" transform="rotate(-55 100 100)" opacity="0.35"/>
  <ellipse cx="100" cy="100" rx="93" ry="15" fill="none" stroke="#BB8FCE" stroke-width="0.8" transform="rotate(-80 100 100)" opacity="0.3"/>
  <!-- Satellites -->
  <circle cx="170" cy="72" r="4" fill="#4ECDC4" opacity="0.9"/>
  <circle cx="30" cy="115" r="3" fill="#FFA07A" opacity="0.9"/>
  <circle cx="155" cy="148" r="3" fill="#BB8FCE" opacity="0.8"/>
  <circle cx="48" cy="58" r="2.5" fill="#4ECDC4" opacity="0.7"/>
</svg>
